<svg width="21" height="21" viewBox="0 0 21 21" fill="none" xmlns="http://www.w3.org/2000/svg">
<path d="M20.7266 6.83594L19.1641 5.3125C18.8125 4.92188 18.1875 4.92188 17.8359 5.3125L8.5 14.6484L4.125 10.3125C3.77344 9.92188 3.1875 9.92188 2.79688 10.3125L1.27344 11.8359C0.882812 12.2266 0.882812 12.8125 1.27344 13.1641L7.83594 19.7266C8.1875 20.1172 8.77344 20.1172 9.125 19.7266L20.6875 8.16406C21.0781 7.8125 21.0781 7.22656 20.7266 6.83594ZM8.03125 10.9766C8.26562 11.25 8.69531 11.25 8.92969 10.9766L17.0547 2.85156C17.2891 2.61719 17.2891 2.22656 17.0547 1.95312L15.2969 0.195312C15.0234 -0.0390625 14.6328 -0.0390625 14.3984 0.195312L8.5 6.13281L6.3125 3.94531C6.07812 3.71094 5.6875 3.71094 5.45312 3.94531L3.65625 5.70312C3.42188 5.97656 3.42188 6.36719 3.65625 6.60156L8.03125 10.9766Z" fill="#11C523"/>
</svg>
